<svg data-v-423bf9ae="" xmlns="http://www.w3.org/2000/svg" viewBox="0 0 587 112" class="iconLeftSlogan"><!----><!----><!----><g data-v-423bf9ae="" id="3eaa5652-2685-4724-bb2c-1ef0604f4df1" fill="white" transform="matrix(4.735595867300924,0,0,4.735595867300924,126.14754696475657,-23.725335425395194)"><path d="M1.19 9.91L2.81 10.85L6.02 10.85L6.02 13.27L3.01 13.27L3.01 12.15L1.05 12.15L1.05 14.01L2.67 14.95L6.36 14.95L7.98 14.01L7.98 9.97L6.36 9.03L3.15 9.03L3.15 6.69L6.02 6.69L6.02 7.81L7.98 7.81L7.98 5.95L6.36 5.01L2.81 5.01L1.19 5.95ZM14.97 14.95L16.59 14.01L16.59 8.75L14.97 7.81L13.13 7.81L12.14 8.39L11.80 7.81L10.22 7.81L10.22 17.68L12.14 17.68L12.14 14.38L13.13 14.95ZM12.14 9.45L14.67 9.45L14.67 13.31L12.14 13.31ZM20.33 12.12L22.30 12.12L22.30 13.34L20.33 13.34ZM20.03 14.95L21.31 14.95L22.30 14.38L23.30 14.95L24.22 14.95L24.22 8.82L22.60 7.88L19.11 7.88L19.11 9.52L22.30 9.52L22.30 10.65L20.03 10.65L18.41 11.59L18.41 14.01ZM28.24 9.52L31.71 9.52L31.71 7.88L27.94 7.88L26.32 8.82L26.32 13.94L27.94 14.88L31.71 14.88L31.71 13.24L28.24 13.24ZM39.34 13.24L35.45 13.24L35.45 12.10L39.34 12.10L39.34 8.75L37.72 7.81L35.15 7.81L33.53 8.75L33.53 13.94L35.15 14.88L39.34 14.88ZM35.45 9.45L37.42 9.45L37.42 10.65L35.45 10.65ZM40.60 14.88L42.66 14.88L44.14 12.78L45.63 14.88L47.68 14.88L45.12 11.31L47.60 7.88L45.51 7.88L44.14 9.86L42.77 7.88L40.68 7.88L43.15 11.31ZM53.27 9.52L53.27 7.88L51.86 7.88L50.86 8.46L50.53 7.88L48.94 7.88L48.94 14.88L50.86 14.88L50.86 9.52ZM60.48 13.24L56.59 13.24L56.59 12.10L60.48 12.10L60.48 8.75L58.86 7.81L56.29 7.81L54.67 8.75L54.67 13.94L56.29 14.88L60.48 14.88ZM56.59 9.45L58.56 9.45L58.56 10.65L56.59 10.65ZM68.12 11.44L66.50 10.50L64.50 10.50L64.50 9.52L67.98 9.52L67.98 7.88L64.20 7.88L62.58 8.82L62.58 11.23L64.20 12.17L66.21 12.17L66.21 13.24L62.58 13.24L62.58 14.88L66.50 14.88L68.12 13.94ZM76.03 13.24L72.14 13.24L72.14 12.10L76.03 12.10L76.03 8.75L74.41 7.81L71.85 7.81L70.22 8.75L70.22 13.94L71.85 14.88L76.03 14.88ZM72.14 9.45L74.12 9.45L74.12 10.65L72.14 10.65ZM82.46 9.52L82.46 7.88L81.05 7.88L80.05 8.46L79.72 7.88L78.13 7.88L78.13 14.88L80.05 14.88L80.05 9.52ZM84.94 7.88L83.02 7.88L85.61 14.88L87.53 14.88L90.12 7.88L88.20 7.88L86.58 12.47L86.55 12.47ZM97.19 13.24L93.30 13.24L93.30 12.10L97.19 12.10L97.19 8.75L95.56 7.81L93.00 7.81L91.38 8.75L91.38 13.94L93.00 14.88L97.19 14.88ZM93.30 9.45L95.27 9.45L95.27 10.65L93.30 10.65Z"></path></g><!----><g data-v-423bf9ae="" id="a2ca17ca-dde7-4542-9d65-8ac969a3a304" transform="matrix(1.1111000061035157,0,0,1.1111000061035157,0.4340900923052686,0.44548204383754353)" stroke="none" fill="white"><path d="M27.159 78.945c7.414-3.59 18.067-11.203 29.313-22.434 8.445-8.435 15.599-17.303 20.143-24.972a56.044 56.044 0 0 0 2.458-4.595C72.288 18.454 61.855 13 50.167 13c-20.402 0-37 16.598-37 37 0 11.711 5.475 22.16 13.992 28.945zM50.543 86.99c20.107-.202 36.42-16.52 36.614-36.63-4.851 6.591-10.606 13.281-17.084 19.75-6.396 6.389-13.01 12.075-19.53 16.88z"></path><path d="M96.963 3.096c-6.135-6.127-20.19-2.853-36.331 7.128 4.798 1.168 9.25 3.151 13.203 5.914 4.457-1.828 8.616-1.82 10.253-.185 2.379 2.375 1.308 7.779-2.37 14.75l-.028-.048c-4.305 8.177-12.211 18.521-22.391 28.688C49.24 69.388 39.006 77.218 30.863 81.552l.026.016c-7.085 3.766-12.582 4.88-14.985 2.479-1.888-1.885-1.61-5.684.533-10.845-2.77-3.974-4.759-8.419-5.916-13.192C.476 76.178-3.015 90.867 3.031 96.905c9.555 9.542 38.331-3.721 64.269-29.625 25.938-25.903 39.219-54.642 29.663-64.184z"></path></g><!----><g data-v-423bf9ae="" id="4fbe9f47-2bfc-4650-9a04-0610f7164c0d" fill="white" transform="matrix(1.2489682292590985,0,0,1.2489682292590985,130.08329089889796,55.87840408964114)"><path d="M0.83 10.82L0.83 10.82L0.83 10.82Q0.83 10.53 1.02 10.53L1.02 10.53L1.02 10.53Q1.20 10.53 1.25 10.67L1.25 10.67L1.25 10.67Q1.39 11.00 1.51 11.25L1.51 11.25L1.51 11.25Q1.62 11.49 1.89 11.85L1.89 11.85L1.89 11.85Q2.16 12.21 2.46 12.44L2.46 12.44L2.46 12.44Q2.77 12.67 3.25 12.84L3.25 12.84L3.25 12.84Q3.74 13.01 4.31 13.01L4.31 13.01L4.31 13.01Q5.36 13.01 6.00 12.45L6.00 12.45L6.00 12.45Q6.64 11.90 6.64 11.00L6.64 11.00L6.64 11.00Q6.64 10.35 6.20 9.90L6.20 9.90L6.20 9.90Q5.77 9.46 5.21 9.27L5.21 9.27L5.21 9.27Q4.65 9.09 3.79 8.77L3.79 8.77L3.79 8.77Q2.93 8.46 2.38 8.13L2.38 8.13L2.38 8.13Q1.11 7.38 1.11 6.08L1.11 6.08L1.11 6.08Q1.11 4.83 2.01 4.08L2.01 4.08L2.01 4.08Q2.91 3.33 4.35 3.33L4.35 3.33L4.35 3.33Q4.89 3.33 5.62 3.56L5.62 3.56L5.62 3.56Q6.36 3.79 6.37 3.79L6.37 3.79L6.37 3.79Q6.41 3.79 6.52 3.74L6.52 3.74L6.52 3.74Q6.64 3.68 6.69 3.68L6.69 3.68L6.69 3.68Q6.87 3.68 6.90 3.79L6.90 3.79L6.90 3.79Q7.20 5.49 7.20 5.70L7.20 5.70L7.20 5.70Q7.20 6.09 7 6.09L7 6.09L7 6.09Q6.87 6.09 6.80 5.89L6.80 5.89L6.80 5.89Q6.64 5.49 6.48 5.24L6.48 5.24L6.48 5.24Q6.31 4.98 6.24 4.91L6.24 4.91L6.24 4.91Q6.17 4.84 5.88 4.58L5.88 4.58L5.88 4.58Q5.12 3.91 4.05 3.91L4.05 3.91L4.05 3.91Q3.18 3.91 2.59 4.33L2.59 4.33L2.59 4.33Q2.00 4.75 2.00 5.46L2.00 5.46L2.00 5.46Q2.00 6.09 2.35 6.50L2.35 6.50L2.35 6.50Q2.69 6.90 3.26 7.13L3.26 7.13L3.26 7.13Q3.84 7.35 4.47 7.55L4.47 7.55L4.47 7.55Q5.10 7.74 5.80 8.09L5.80 8.09L5.80 8.09Q6.51 8.44 6.97 8.93L6.97 8.93L6.97 8.93Q7.53 9.53 7.53 10.43L7.53 10.43L7.53 10.43Q7.53 11.90 6.59 12.76L6.59 12.76L6.59 12.76Q5.66 13.62 4.27 13.62L4.27 13.62L4.27 13.62Q3.30 13.62 2.72 13.52L2.72 13.52L2.72 13.52Q2.13 13.41 1.51 13.09L1.51 13.09L1.51 13.09Q1.33 12.98 1.08 12.00L1.08 12.00L1.08 12.00Q0.83 11.02 0.83 10.82ZM15.62 3.72L15.62 3.72L15.62 3.72Q15.62 3.50 15.95 3.50L15.95 3.50L15.95 3.50Q15.99 3.50 16.10 3.49L16.10 3.49L16.10 3.49Q16.21 3.49 16.46 3.49L16.46 3.49L16.46 3.49Q16.53 3.49 16.85 3.51L16.85 3.51L16.85 3.51Q17.16 3.53 17.30 3.53L17.30 3.53L17.30 3.53Q17.61 3.53 18.49 3.51L18.49 3.51L18.49 3.51Q19.38 3.49 19.61 3.49L19.61 3.49L19.61 3.49Q20.93 3.49 21.88 4.15L21.88 4.15L21.88 4.15Q22.83 4.82 22.83 6.06L22.83 6.06L22.83 6.06Q22.83 6.75 22.58 7.29L22.58 7.29L22.58 7.29Q22.33 7.83 21.97 8.13L21.97 8.13L21.97 8.13Q21.62 8.44 21.18 8.64L21.18 8.64L21.18 8.64Q20.73 8.85 20.39 8.91L20.39 8.91L20.39 8.91Q20.05 8.97 19.78 8.97L19.78 8.97L19.78 8.97Q19.33 8.97 18.87 8.87L18.87 8.87L18.87 8.87Q18.41 8.76 18.41 8.65L18.41 8.65L18.41 8.65Q18.41 8.44 18.59 8.44L18.59 8.44L18.59 8.44Q18.66 8.44 18.88 8.50L18.88 8.50L18.88 8.50Q19.10 8.55 19.31 8.55L19.31 8.55L19.31 8.55Q19.63 8.55 19.99 8.46L19.99 8.46L19.99 8.46Q20.36 8.37 20.75 8.17L20.75 8.17L20.75 8.17Q21.14 7.97 21.39 7.55L21.39 7.55L21.39 7.55Q21.64 7.14 21.64 6.59L21.64 6.59L21.64 6.59Q21.64 5.66 20.89 4.85L20.89 4.85L20.89 4.85Q20.13 4.05 18.80 4.05L18.80 4.05L18.80 4.05Q18.37 4.05 18.21 4.30L18.21 4.30L18.21 4.30Q18.06 4.56 18.06 5.47L18.06 5.47L18.06 5.47Q18.06 8.39 18.05 8.80L18.05 8.80L18.05 8.80Q18.03 9.21 18.03 11.26L18.03 11.26L18.03 11.26Q18.03 12.49 18.61 12.87L18.61 12.87L18.61 12.87Q18.76 12.96 18.99 12.99L18.99 12.99L18.99 12.99Q19.22 13.02 19.38 13.01L19.38 13.01L19.38 13.01Q19.53 13.01 19.65 13.07L19.65 13.07L19.65 13.07Q19.77 13.13 19.77 13.30L19.77 13.30L19.77 13.30Q19.77 13.54 19.45 13.54L19.45 13.54L19.45 13.54Q19.12 13.54 18.31 13.50L18.31 13.50L18.31 13.50Q17.50 13.47 17.44 13.47L17.44 13.47L17.44 13.47Q17.30 13.47 16.89 13.50L16.89 13.50L16.89 13.50Q16.48 13.52 16.14 13.52L16.14 13.52L16.14 13.52Q15.71 13.52 15.71 13.37L15.71 13.37L15.71 13.37Q15.71 13.29 15.73 13.23L15.73 13.23L15.73 13.23Q15.75 13.17 15.77 13.14L15.77 13.14L15.77 13.14Q15.79 13.10 15.86 13.08L15.86 13.08L15.86 13.08Q15.93 13.05 15.96 13.03L15.96 13.03L15.96 13.03Q15.99 13.02 16.09 13.00L16.09 13.00L16.09 13.00Q16.20 12.98 16.24 12.96L16.24 12.96L16.24 12.96Q16.27 12.95 16.32 12.94L16.32 12.94L16.32 12.94Q16.38 12.94 16.40 12.93L16.40 12.93L16.40 12.93Q16.42 12.92 16.47 12.89L16.47 12.89L16.47 12.89Q16.52 12.85 16.55 12.79L16.55 12.79L16.55 12.79Q16.58 12.73 16.63 12.62L16.63 12.62L16.63 12.62Q16.67 12.52 16.73 12.35L16.73 12.35L16.73 12.35Q16.83 12.08 16.88 10.25L16.88 10.25L16.88 10.25Q16.94 8.41 16.94 7.41L16.94 7.41L16.94 7.41Q16.94 6.54 16.93 5.80L16.93 5.80L16.93 5.80Q16.93 5.07 16.93 5.03L16.93 5.03L16.93 5.03Q16.93 4.65 16.69 4.28L16.69 4.28L16.69 4.28Q16.45 3.91 15.90 3.91L15.90 3.91L15.90 3.91Q15.62 3.91 15.62 3.72ZM29.23 13.33L29.23 13.33L29.23 13.33Q29.23 13.13 29.44 13.06L29.44 13.06L29.44 13.06Q29.89 12.89 30.23 12.31L30.23 12.31L30.23 12.31Q30.56 11.73 31.89 8.83L31.89 8.83L31.89 8.83Q33.26 5.87 34.31 3.63L34.31 3.63L34.31 3.63Q34.41 3.42 34.49 3.36L34.49 3.36L34.49 3.36Q34.57 3.30 34.73 3.30L34.73 3.30L34.73 3.30Q34.86 3.30 34.90 3.36L34.90 3.36L34.90 3.36Q34.94 3.42 35.08 3.82L35.08 3.82L35.08 3.82Q35.17 4.06 35.23 4.23L35.23 4.23L35.23 4.23Q35.29 4.40 35.43 4.77L35.43 4.77L35.43 4.77Q35.57 5.15 35.74 5.56L35.74 5.56L35.74 5.56Q36.19 6.66 37.29 9.22L37.29 9.22L37.29 9.22Q38.39 11.77 38.49 11.98L38.49 11.98L38.49 11.98Q38.72 12.46 39.02 12.71L39.02 12.71L39.02 12.71Q39.31 12.95 39.53 12.97L39.53 12.97L39.53 12.97Q39.75 12.99 39.89 13.04L39.89 13.04L39.89 13.04Q40.04 13.09 40.04 13.26L40.04 13.26L40.04 13.26Q40.04 13.47 39.66 13.47L39.66 13.47L39.66 13.47Q39.51 13.47 39.06 13.43L39.06 13.43L39.06 13.43Q38.61 13.38 38.40 13.38L38.40 13.38L38.40 13.38Q38.14 13.38 37.72 13.41L37.72 13.41L37.72 13.41Q37.30 13.44 37.10 13.44L37.10 13.44L37.10 13.44Q36.67 13.44 36.55 13.40L36.55 13.40L36.55 13.40Q36.43 13.37 36.43 13.24L36.43 13.24L36.43 13.24Q36.43 13.15 36.54 13.08L36.54 13.08L36.54 13.08Q36.65 13.02 36.78 13.00L36.78 13.00L36.78 13.00Q36.90 12.98 37.02 12.87L37.02 12.87L37.02 12.87Q37.13 12.77 37.13 12.59L37.13 12.59L37.13 12.59Q37.13 12.28 36.78 11.33L36.78 11.33L36.78 11.33Q36.43 10.37 36.19 9.93L36.19 9.93L36.19 9.93Q36.06 9.69 35.62 9.69L35.62 9.69L35.62 9.69Q35.55 9.69 35 9.70L35 9.70L35 9.70Q34.45 9.72 33.92 9.72L33.92 9.72L33.18 9.72L33.18 9.72Q32.55 9.72 32.39 9.79L32.39 9.79L32.39 9.79Q32.23 9.86 32.10 10.12L32.10 10.12L32.10 10.12Q32.02 10.30 31.82 10.70L31.82 10.70L31.82 10.70Q31.63 11.10 31.56 11.26L31.56 11.26L31.56 11.26Q31.49 11.41 31.38 11.65L31.38 11.65L31.38 11.65Q31.28 11.90 31.24 12.05L31.24 12.05L31.24 12.05Q31.21 12.19 31.21 12.31L31.21 12.31L31.21 12.31Q31.21 12.63 31.37 12.80L31.37 12.80L31.37 12.80Q31.53 12.96 31.72 12.98L31.72 12.98L31.72 12.98Q31.92 13.01 32.08 13.06L32.08 13.06L32.08 13.06Q32.24 13.12 32.24 13.26L32.24 13.26L32.24 13.26Q32.24 13.36 32.20 13.40L32.20 13.40L32.20 13.40Q32.16 13.45 32.00 13.45L32.00 13.45L32.00 13.45Q31.92 13.45 31.52 13.45L31.52 13.45L31.52 13.45Q31.12 13.44 30.84 13.44L30.84 13.44L30.84 13.44Q30.53 13.44 30.15 13.47L30.15 13.47L30.15 13.47Q29.76 13.50 29.64 13.50L29.64 13.50L29.64 13.50Q29.23 13.50 29.23 13.33ZM32.75 8.71L32.75 8.71L32.75 8.71Q32.75 8.89 32.87 8.93L32.87 8.93L32.87 8.93Q33.00 8.97 33.46 8.97L33.46 8.97L33.89 8.97L35.22 8.96L35.22 8.96Q35.77 8.96 35.77 8.74L35.77 8.74L35.77 8.74Q35.77 8.55 35.08 7.01L35.08 7.01L35.08 7.01Q34.40 5.46 34.22 5.46L34.22 5.46L34.22 5.46Q34.09 5.46 33.42 7.01L33.42 7.01L33.42 7.01Q32.75 8.55 32.75 8.71ZM47.25 8.90L47.25 8.90L47.25 8.90Q47.25 7.38 47.84 6.16L47.84 6.16L47.84 6.16Q48.43 4.94 49.65 4.19L49.65 4.19L49.65 4.19Q50.88 3.44 52.56 3.44L52.56 3.44L52.56 3.44Q53.41 3.44 54.28 3.70L54.28 3.70L54.28 3.70Q55.15 3.95 55.66 4.20L55.66 4.20L56.18 4.47L56.18 4.47Q56.22 4.47 56.32 4.40L56.32 4.40L56.32 4.40Q56.42 4.33 56.48 4.33L56.48 4.33L56.48 4.33Q56.55 4.33 56.62 4.38L56.62 4.38L56.62 4.38Q56.69 4.44 56.69 4.55L56.69 4.55L56.69 4.55Q56.70 4.96 56.75 5.41L56.75 5.41L56.75 5.41Q56.80 5.87 56.84 6.16L56.84 6.16L56.84 6.16Q56.88 6.45 56.88 6.51L56.88 6.51L56.88 6.51Q56.88 6.76 56.71 6.76L56.71 6.76L56.71 6.76Q56.59 6.76 56.48 6.57L56.48 6.57L56.48 6.57Q55.12 4.02 52.56 4.02L52.56 4.02L52.56 4.02Q50.81 4.02 49.69 5.14L49.69 5.14L49.69 5.14Q48.57 6.26 48.57 8.06L48.57 8.06L48.57 8.06Q48.57 9.06 48.83 9.93L48.83 9.93L48.83 9.93Q49.08 10.79 49.61 11.51L49.61 11.51L49.61 11.51Q50.13 12.24 51.06 12.66L51.06 12.66L51.06 12.66Q51.98 13.08 53.21 13.08L53.21 13.08L53.21 13.08Q55.23 13.08 56.60 10.98L56.60 10.98L56.60 10.98Q56.66 10.88 56.81 10.88L56.81 10.88L56.81 10.88Q56.94 10.88 56.94 11.07L56.94 11.07L56.94 11.07Q56.94 11.23 56.89 11.49L56.89 11.49L56.89 11.49Q56.84 11.75 56.77 12.06L56.77 12.06L56.77 12.06Q56.70 12.38 56.69 12.45L56.69 12.45L56.69 12.45Q56.66 12.60 56.46 12.70L56.46 12.70L56.46 12.70Q55.71 13.06 55.28 13.24L55.28 13.24L55.28 13.24Q54.85 13.43 54.19 13.57L54.19 13.57L54.19 13.57Q53.54 13.72 52.85 13.72L52.85 13.72L52.85 13.72Q51.63 13.72 50.65 13.43L50.65 13.43L50.65 13.43Q49.67 13.13 49.05 12.66L49.05 12.66L49.05 12.66Q48.43 12.18 48.01 11.54L48.01 11.54L48.01 11.54Q47.59 10.91 47.42 10.25L47.42 10.25L47.42 10.25Q47.25 9.60 47.25 8.90ZM65.21 3.65L65.21 3.65L65.21 3.65Q65.21 3.46 65.60 3.46L65.60 3.46L65.60 3.46Q65.66 3.46 65.79 3.47L65.79 3.47L65.79 3.47Q65.91 3.49 65.98 3.49L65.98 3.49L65.98 3.49Q66.02 3.49 67.30 3.52L67.30 3.52L67.30 3.52Q68.57 3.56 69.40 3.56L69.40 3.56L69.40 3.56Q69.69 3.56 70.85 3.53L70.85 3.53L70.85 3.53Q72.00 3.50 72.20 3.50L72.20 3.50L72.20 3.50Q72.46 3.50 72.46 3.82L72.46 3.82L72.46 3.82Q72.46 3.91 72.38 4.38L72.38 4.38L72.38 4.38Q72.30 4.84 72.30 5.25L72.30 5.25L72.30 5.25Q72.30 5.38 72.23 5.47L72.23 5.47L72.23 5.47Q72.16 5.56 72.07 5.56L72.07 5.56L72.07 5.56Q71.86 5.56 71.86 5.26L71.86 5.26L71.86 5.26Q71.86 4.89 71.62 4.58L71.62 4.58L71.62 4.58Q71.39 4.27 71.04 4.26L71.04 4.26L71.04 4.26Q69.78 4.16 69.10 4.16L69.10 4.16L68.74 4.16L68.74 4.16Q68.01 4.16 67.89 4.26L67.89 4.26L67.89 4.26Q67.77 4.37 67.75 5.01L67.75 5.01L67.75 5.01Q67.69 6.02 67.69 7.35L67.69 7.35L67.69 7.35Q67.69 8.05 67.96 8.06L67.96 8.06L68.31 8.06L68.89 8.06L69.33 8.06L69.33 8.06Q70.17 8.06 70.45 8.01L70.45 8.01L70.45 8.01Q70.73 7.95 70.95 7.80L70.95 7.80L70.95 7.80Q71.22 7.62 71.27 7.28L71.27 7.28L71.27 7.28Q71.32 7.04 71.47 7.04L71.47 7.04L71.47 7.04Q71.60 7.04 71.62 7.08L71.62 7.08L71.62 7.08Q71.65 7.13 71.65 7.27L71.65 7.27L71.65 7.27Q71.65 7.36 71.60 7.91L71.60 7.91L71.60 7.91Q71.54 8.46 71.54 8.74L71.54 8.74L71.54 8.74Q71.54 9.00 71.56 9.24L71.56 9.24L71.56 9.24Q71.58 9.48 71.58 9.59L71.58 9.59L71.58 9.59Q71.58 9.94 71.48 9.94L71.48 9.94L71.48 9.94Q71.27 9.94 71.18 9.60L71.18 9.60L71.18 9.60Q70.98 9.02 70.83 8.92L70.83 8.92L70.83 8.92Q70.53 8.72 69.48 8.72L69.48 8.72L69.48 8.72Q69.06 8.72 68.80 8.72L68.80 8.72L68.80 8.72Q68.54 8.72 68.47 8.71L68.47 8.71L68.47 8.71Q68.39 8.71 68.34 8.71L68.34 8.71L68.34 8.71Q68.29 8.71 68.25 8.71L68.25 8.71L68.25 8.71Q67.68 8.71 67.68 8.97L67.68 8.97L67.68 8.97Q67.68 9.38 67.66 9.99L67.66 9.99L67.66 9.99Q67.65 10.60 67.65 10.99L67.65 10.99L67.65 11.55L67.65 11.55Q67.65 12.56 67.98 12.66L67.98 12.66L67.98 12.66Q68.33 12.77 68.59 12.77L68.59 12.77L68.59 12.77Q69.64 12.77 70.43 12.67L70.43 12.67L70.43 12.67Q71.22 12.57 71.62 12.42L71.62 12.42L71.62 12.42Q72.02 12.28 72.28 12.10L72.28 12.10L72.28 12.10Q72.55 11.93 72.63 11.78L72.63 11.78L72.63 11.78Q72.70 11.63 72.78 11.54L72.78 11.54L72.78 11.54Q72.86 11.44 72.94 11.44L72.94 11.44L72.94 11.44Q73.11 11.44 73.11 11.68L73.11 11.68L73.11 11.68Q73.11 12.28 72.51 12.89L72.51 12.89L72.51 12.89Q71.90 13.51 71.46 13.51L71.46 13.51L71.46 13.51Q70.45 13.51 69.18 13.44L69.18 13.44L69.18 13.44Q67.91 13.37 67.61 13.37L67.61 13.37L67.61 13.37Q67.21 13.37 66.63 13.43L66.63 13.43L66.63 13.43Q66.04 13.50 65.70 13.50L65.70 13.50L65.70 13.50Q65.41 13.50 65.41 13.36L65.41 13.36L65.41 13.36Q65.41 13.23 65.41 13.19L65.41 13.19L65.41 13.19Q65.41 13.15 65.45 13.12L65.45 13.12L65.45 13.12Q65.49 13.09 65.54 13.08L65.54 13.08L65.54 13.08Q65.59 13.08 65.72 13.03L65.72 13.03L65.72 13.03Q65.86 12.99 66.01 12.92L66.01 12.92L66.01 12.92Q66.35 12.75 66.45 12.26L66.45 12.26L66.45 12.26Q66.56 11.77 66.56 10.21L66.56 10.21L66.56 8.47L66.56 8.47Q66.56 8.09 66.58 7.29L66.58 7.29L66.58 7.29Q66.60 6.50 66.60 6.05L66.60 6.05L66.60 6.05Q66.60 5.67 66.57 4.77L66.57 4.77L66.57 4.77Q66.56 4.37 66.22 4.14L66.22 4.14L66.22 4.14Q65.88 3.92 65.44 3.91L65.44 3.91L65.44 3.91Q65.21 3.91 65.21 3.65ZM80.67 3.63L80.67 3.63L80.67 3.63Q80.67 3.51 80.77 3.48L80.77 3.48L80.77 3.48Q80.86 3.44 81.26 3.44L81.26 3.44L81.26 3.44Q81.52 3.44 81.79 3.47L81.79 3.47L81.79 3.47Q82.05 3.50 82.50 3.50L82.50 3.50L82.50 3.50Q82.59 3.50 83.25 3.49L83.25 3.49L83.25 3.49Q83.92 3.47 83.97 3.47L83.97 3.47L83.97 3.47Q84.28 3.47 84.28 3.60L84.28 3.60L84.28 3.60Q84.28 3.72 84.18 3.78L84.18 3.78L84.18 3.78Q84.08 3.84 83.97 3.84L83.97 3.84L83.97 3.84Q83.85 3.85 83.75 3.92L83.75 3.92L83.75 3.92Q83.65 3.99 83.65 4.14L83.65 4.14L83.65 4.14Q83.65 4.41 84.41 5.50L84.41 5.50L84.41 5.50Q85.54 7.22 85.68 7.36L85.68 7.36L85.68 7.36Q85.76 7.45 85.81 7.45L85.81 7.45L85.81 7.45Q85.92 7.45 86.13 7.14L86.13 7.14L86.13 7.14Q86.25 6.96 86.53 6.56L86.53 6.56L86.53 6.56Q86.81 6.16 87.03 5.84L87.03 5.84L87.03 5.84Q87.25 5.53 87.48 5.19L87.48 5.19L87.48 5.19Q87.71 4.84 87.84 4.61L87.84 4.61L87.84 4.61Q87.98 4.37 87.98 4.27L87.98 4.27L87.98 4.27Q87.98 4.05 87.86 3.94L87.86 3.94L87.86 3.94Q87.74 3.84 87.61 3.82L87.61 3.82L87.61 3.82Q87.47 3.81 87.35 3.76L87.35 3.76L87.35 3.76Q87.23 3.71 87.23 3.58L87.23 3.58L87.23 3.58Q87.23 3.44 87.44 3.44L87.44 3.44L87.44 3.44Q87.75 3.44 88.05 3.47L88.05 3.47L88.05 3.47Q88.34 3.50 88.58 3.50L88.58 3.50L88.58 3.50Q89.36 3.50 89.61 3.47L89.61 3.47L89.61 3.47Q89.85 3.44 89.89 3.44L89.89 3.44L89.89 3.44Q90.12 3.44 90.12 3.58L90.12 3.58L90.12 3.58Q90.12 3.72 89.99 3.77L89.99 3.77L89.99 3.77Q89.87 3.82 89.59 3.92L89.59 3.92L89.59 3.92Q89.31 4.02 89.07 4.19L89.07 4.19L89.07 4.19Q88.80 4.37 88.33 5.01L88.33 5.01L88.33 5.01Q86.16 7.92 86.16 7.95L86.16 7.95L86.16 7.95Q86.16 8.05 86.66 8.76L86.66 8.76L86.66 8.76Q87.32 9.70 87.92 10.57L87.92 10.57L87.92 10.57Q89.21 12.45 89.74 12.88L89.74 12.88L89.74 12.88Q89.78 12.92 90.01 12.96L90.01 12.96L90.01 12.96Q90.24 13.01 90.43 13.08L90.43 13.08L90.43 13.08Q90.62 13.15 90.62 13.26L90.62 13.26L90.62 13.26Q90.62 13.33 90.60 13.36L90.60 13.36L90.60 13.36Q90.58 13.40 90.48 13.43L90.48 13.43L90.48 13.43Q90.37 13.45 90.17 13.45L90.17 13.45L90.17 13.45Q89.91 13.45 89.31 13.40L89.31 13.40L89.31 13.40Q88.72 13.36 88.68 13.36L88.68 13.36L88.68 13.36Q88.27 13.36 87.96 13.38L87.96 13.38L87.96 13.38Q87.64 13.40 87.47 13.42L87.47 13.42L87.47 13.42Q87.30 13.44 87.25 13.44L87.25 13.44L87.25 13.44Q87.07 13.44 87.07 13.26L87.07 13.26L87.07 13.26Q87.07 13.09 87.42 13.01L87.42 13.01L87.42 13.01Q87.78 12.92 87.78 12.66L87.78 12.66L87.78 12.66Q87.78 12.56 87.69 12.38L87.69 12.38L87.69 12.38Q87.60 12.19 87.39 11.86L87.39 11.86L87.39 11.86Q87.18 11.52 86.96 11.21L86.96 11.21L86.96 11.21Q86.74 10.89 86.33 10.29L86.33 10.29L86.33 10.29Q85.92 9.69 85.60 9.20L85.60 9.20L85.60 9.20Q85.46 8.96 85.36 8.96L85.36 8.96L85.36 8.96Q85.33 8.96 85.06 9.39L85.06 9.39L85.06 9.39Q84.76 9.88 84.18 10.66L84.18 10.66L84.18 10.66Q83.59 11.44 83.30 11.91L83.30 11.91L83.30 11.91Q83.01 12.39 83.01 12.67L83.01 12.67L83.01 12.67Q83.01 13.05 83.76 13.05L83.76 13.05L83.76 13.05Q83.93 13.05 83.93 13.29L83.93 13.29L83.93 13.29Q83.93 13.44 83.50 13.44L83.50 13.44L83.50 13.44Q83.36 13.44 82.83 13.42L82.83 13.42L82.83 13.42Q82.31 13.40 82.26 13.40L82.26 13.40L82.26 13.40Q82.14 13.40 81.72 13.43L81.72 13.43L81.72 13.43Q81.30 13.45 81.14 13.45L81.14 13.45L81.14 13.45Q80.99 13.45 80.92 13.44L80.92 13.44L80.92 13.44Q80.85 13.43 80.79 13.37L80.79 13.37L80.79 13.37Q80.74 13.31 80.74 13.19L80.74 13.19L80.74 13.19Q80.74 13.09 80.82 13.05L80.82 13.05L80.82 13.05Q80.91 13.02 81.03 13.01L81.03 13.01L81.03 13.01Q81.14 13.01 81.35 12.94L81.35 12.94L81.35 12.94Q81.55 12.87 81.73 12.73L81.73 12.73L81.73 12.73Q81.87 12.61 82.03 12.46L82.03 12.46L82.03 12.46Q82.19 12.31 82.37 12.09L82.37 12.09L82.37 12.09Q82.54 11.87 82.68 11.70L82.68 11.70L82.68 11.70Q82.82 11.54 83.03 11.25L83.03 11.25L83.03 11.25Q83.24 10.96 83.35 10.81L83.35 10.81L83.35 10.81Q83.45 10.67 83.69 10.34L83.69 10.34L83.69 10.34Q83.92 10.01 84 9.90L84 9.90L84 9.90Q84.21 9.60 84.50 9.22L84.50 9.22L84.50 9.22Q84.80 8.83 84.92 8.67L84.92 8.67L84.92 8.67Q85.04 8.50 85.04 8.46L85.04 8.46L85.04 8.46Q85.04 8.41 84.98 8.32L84.98 8.32L84.98 8.32Q84.92 8.23 84.77 8.02L84.77 8.02L84.77 8.02Q84.62 7.80 84.43 7.54L84.43 7.54L84.43 7.54Q84.24 7.28 83.87 6.78L83.87 6.78L83.87 6.78Q83.51 6.27 83.13 5.73L83.13 5.73L83.13 5.73Q82.01 4.07 81.23 3.91L81.23 3.91L81.23 3.91Q81.20 3.91 81.07 3.88L81.07 3.88L81.07 3.88Q80.95 3.86 80.88 3.84L80.88 3.84L80.88 3.84Q80.81 3.82 80.74 3.77L80.74 3.77L80.74 3.77Q80.67 3.71 80.67 3.63ZM108.50 8.90L108.50 8.90L108.50 8.90Q108.50 7.38 109.09 6.16L109.09 6.16L109.09 6.16Q109.68 4.94 110.90 4.19L110.90 4.19L110.90 4.19Q112.13 3.44 113.81 3.44L113.81 3.44L113.81 3.44Q114.66 3.44 115.53 3.70L115.53 3.70L115.53 3.70Q116.40 3.95 116.91 4.20L116.91 4.20L117.43 4.47L117.43 4.47Q117.47 4.47 117.57 4.40L117.57 4.40L117.57 4.40Q117.67 4.33 117.73 4.33L117.73 4.33L117.73 4.33Q117.80 4.33 117.87 4.38L117.87 4.38L117.87 4.38Q117.94 4.44 117.94 4.55L117.94 4.55L117.94 4.55Q117.95 4.96 118.00 5.41L118.00 5.41L118.00 5.41Q118.05 5.87 118.09 6.16L118.09 6.16L118.09 6.16Q118.13 6.45 118.13 6.51L118.13 6.51L118.13 6.51Q118.13 6.76 117.96 6.76L117.96 6.76L117.96 6.76Q117.84 6.76 117.73 6.57L117.73 6.57L117.73 6.57Q116.37 4.02 113.81 4.02L113.81 4.02L113.81 4.02Q112.06 4.02 110.94 5.14L110.94 5.14L110.94 5.14Q109.82 6.26 109.82 8.06L109.82 8.06L109.82 8.06Q109.82 9.06 110.08 9.93L110.08 9.93L110.08 9.93Q110.33 10.79 110.86 11.51L110.86 11.51L110.86 11.51Q111.38 12.24 112.31 12.66L112.31 12.66L112.31 12.66Q113.23 13.08 114.46 13.08L114.46 13.08L114.46 13.08Q116.48 13.08 117.85 10.98L117.85 10.98L117.85 10.98Q117.91 10.88 118.06 10.88L118.06 10.88L118.06 10.88Q118.19 10.88 118.19 11.07L118.19 11.07L118.19 11.07Q118.19 11.23 118.14 11.49L118.14 11.49L118.14 11.49Q118.09 11.75 118.02 12.06L118.02 12.06L118.02 12.06Q117.95 12.38 117.94 12.45L117.94 12.45L117.94 12.45Q117.91 12.60 117.71 12.70L117.71 12.70L117.71 12.70Q116.96 13.06 116.53 13.24L116.53 13.24L116.53 13.24Q116.10 13.43 115.44 13.57L115.44 13.57L115.44 13.57Q114.79 13.72 114.10 13.72L114.10 13.72L114.10 13.72Q112.88 13.72 111.90 13.43L111.90 13.43L111.90 13.43Q110.92 13.13 110.30 12.66L110.30 12.66L110.30 12.66Q109.68 12.18 109.26 11.54L109.26 11.54L109.26 11.54Q108.84 10.91 108.67 10.25L108.67 10.25L108.67 10.25Q108.50 9.60 108.50 8.90ZM126.80 8.69L126.80 8.69L126.80 8.69Q126.80 6.34 128.21 4.84L128.21 4.84L128.21 4.84Q129.63 3.33 132.22 3.33L132.22 3.33L132.22 3.33Q133.42 3.33 134.39 3.68L134.39 3.68L134.39 3.68Q135.35 4.03 135.91 4.54L135.91 4.54L135.91 4.54Q136.47 5.05 136.85 5.71L136.85 5.71L136.85 5.71Q137.23 6.37 137.37 6.92L137.37 6.92L137.37 6.92Q137.51 7.48 137.51 7.95L137.51 7.95L137.51 7.95Q137.51 9.86 136.77 11.16L136.77 11.16L136.77 11.16Q136.02 12.47 134.81 13.07L134.81 13.07L134.81 13.07Q133.60 13.66 132.02 13.66L132.02 13.66L132.02 13.66Q130.35 13.66 129.14 12.94L129.14 12.94L129.14 12.94Q127.93 12.21 127.37 11.10L127.37 11.10L127.37 11.10Q126.80 10.00 126.80 8.69ZM128.03 7.98L128.03 7.98L128.03 7.98Q128.03 8.54 128.18 9.19L128.18 9.19L128.18 9.19Q128.34 9.84 128.69 10.54L128.69 10.54L128.69 10.54Q129.04 11.23 129.53 11.78L129.53 11.78L129.53 11.78Q130.03 12.33 130.80 12.69L130.80 12.69L130.80 12.69Q131.56 13.05 132.47 13.05L132.47 13.05L132.47 13.05Q132.94 13.05 133.47 12.90L133.47 12.90L133.47 12.90Q133.99 12.75 134.51 12.45L134.51 12.45L134.51 12.45Q135.03 12.14 135.44 11.70L135.44 11.70L135.44 11.70Q135.84 11.26 136.10 10.62L136.10 10.62L136.10 10.62Q136.36 9.98 136.36 9.24L136.36 9.24L136.36 9.24Q136.36 6.71 135.03 5.30L135.03 5.30L135.03 5.30Q133.70 3.89 131.74 3.89L131.74 3.89L131.74 3.89Q130.20 3.89 129.12 4.93L129.12 4.93L129.12 4.93Q128.03 5.96 128.03 7.98ZM145.40 3.71L145.40 3.71L145.40 3.71Q145.40 3.46 145.78 3.46L145.78 3.46L145.78 3.46Q145.84 3.46 145.96 3.47L145.96 3.47L145.96 3.47Q146.09 3.49 146.16 3.49L146.16 3.49L146.16 3.49Q146.30 3.49 146.69 3.51L146.69 3.51L146.69 3.51Q147.07 3.54 147.38 3.54L147.38 3.54L147.38 3.54Q147.81 3.54 148.30 3.51L148.30 3.51L148.30 3.51Q148.79 3.49 148.85 3.49L148.85 3.49L148.85 3.49Q149.09 3.49 149.09 3.63L149.09 3.63L149.09 3.63Q149.09 3.82 148.92 3.88L148.92 3.88L148.92 3.88Q148.75 3.95 148.55 3.97L148.55 3.97L148.55 3.97Q148.34 3.99 148.16 4.28L148.16 4.28L148.16 4.28Q147.97 4.56 147.94 5.14L147.94 5.14L147.94 5.14Q147.91 5.68 147.87 8.19L147.87 8.19L147.87 8.19Q147.83 10.70 147.83 10.99L147.83 10.99L147.83 11.55L147.83 11.55Q147.83 12.56 148.16 12.66L148.16 12.66L148.16 12.66Q148.51 12.77 148.76 12.77L148.76 12.77L148.76 12.77Q149.81 12.77 150.60 12.67L150.60 12.67L150.60 12.67Q151.40 12.57 151.79 12.42L151.79 12.42L151.79 12.42Q152.19 12.28 152.46 12.10L152.46 12.10L152.46 12.10Q152.73 11.93 152.80 11.78L152.80 11.78L152.80 11.78Q152.88 11.63 152.96 11.54L152.96 11.54L152.96 11.54Q153.03 11.44 153.12 11.44L153.12 11.44L153.12 11.44Q153.29 11.44 153.29 11.68L153.29 11.68L153.29 11.68Q153.29 12.28 152.68 12.89L152.68 12.89L152.68 12.89Q152.08 13.51 151.63 13.51L151.63 13.51L151.63 13.51Q150.63 13.51 149.36 13.44L149.36 13.44L149.36 13.44Q148.09 13.37 147.78 13.37L147.78 13.37L147.78 13.37Q147.39 13.37 146.88 13.43L146.88 13.43L146.88 13.43Q146.37 13.48 146.03 13.48L146.03 13.48L146.03 13.48Q145.63 13.48 145.63 13.31L145.63 13.31L145.63 13.31Q145.63 13.22 145.70 13.15L145.70 13.15L145.70 13.15Q145.78 13.09 145.85 13.09L145.85 13.09L145.85 13.09Q146.06 13.09 146.26 12.95L146.26 12.95L146.26 12.95Q146.51 12.75 146.62 12.23L146.62 12.23L146.62 12.23Q146.73 11.70 146.73 10.21L146.73 10.21L146.73 8.47L146.73 8.47Q146.73 8.09 146.75 7.29L146.75 7.29L146.75 7.29Q146.78 6.50 146.78 6.05L146.78 6.05L146.78 6.05Q146.78 5.67 146.75 4.77L146.75 4.77L146.75 4.77Q146.73 4.37 146.40 4.14L146.40 4.14L146.40 4.14Q146.06 3.92 145.61 3.91L145.61 3.91L145.61 3.91Q145.47 3.91 145.44 3.86L145.44 3.86L145.44 3.86Q145.40 3.81 145.40 3.71ZM160.85 3.71L160.85 3.71L160.85 3.71Q160.85 3.46 161.22 3.46L161.22 3.46L161.22 3.46Q161.28 3.46 161.41 3.47L161.41 3.47L161.41 3.47Q161.53 3.49 161.60 3.49L161.60 3.49L161.60 3.49Q161.74 3.49 162.13 3.51L162.13 3.51L162.13 3.51Q162.51 3.54 162.82 3.54L162.82 3.54L162.82 3.54Q163.25 3.54 163.74 3.51L163.74 3.51L163.74 3.51Q164.23 3.49 164.29 3.49L164.29 3.49L164.29 3.49Q164.53 3.49 164.53 3.63L164.53 3.63L164.53 3.63Q164.53 3.82 164.36 3.88L164.36 3.88L164.36 3.88Q164.19 3.95 163.99 3.97L163.99 3.97L163.99 3.97Q163.79 3.99 163.60 4.28L163.60 4.28L163.60 4.28Q163.41 4.56 163.38 5.14L163.38 5.14L163.38 5.14Q163.35 5.68 163.31 8.19L163.31 8.19L163.31 8.19Q163.27 10.70 163.27 10.99L163.27 10.99L163.27 11.55L163.27 11.55Q163.27 12.56 163.60 12.66L163.60 12.66L163.60 12.66Q163.95 12.77 164.21 12.77L164.21 12.77L164.21 12.77Q165.26 12.77 166.05 12.67L166.05 12.67L166.05 12.67Q166.84 12.57 167.24 12.42L167.24 12.42L167.24 12.42Q167.64 12.28 167.90 12.10L167.90 12.10L167.90 12.10Q168.17 11.93 168.25 11.78L168.25 11.78L168.25 11.78Q168.32 11.63 168.40 11.54L168.40 11.54L168.40 11.54Q168.48 11.44 168.56 11.44L168.56 11.44L168.56 11.44Q168.73 11.44 168.73 11.68L168.73 11.68L168.73 11.68Q168.73 12.28 168.13 12.89L168.13 12.89L168.13 12.89Q167.52 13.51 167.08 13.51L167.08 13.51L167.08 13.51Q166.07 13.51 164.80 13.44L164.80 13.44L164.80 13.44Q163.53 13.37 163.23 13.37L163.23 13.37L163.23 13.37Q162.83 13.37 162.32 13.43L162.32 13.43L162.32 13.43Q161.81 13.48 161.48 13.48L161.48 13.48L161.48 13.48Q161.07 13.48 161.07 13.31L161.07 13.31L161.07 13.31Q161.07 13.22 161.15 13.15L161.15 13.15L161.15 13.15Q161.22 13.09 161.29 13.09L161.29 13.09L161.29 13.09Q161.50 13.09 161.70 12.95L161.70 12.95L161.70 12.95Q161.95 12.75 162.06 12.23L162.06 12.23L162.06 12.23Q162.18 11.70 162.18 10.21L162.18 10.21L162.18 8.47L162.18 8.47Q162.18 8.09 162.20 7.29L162.20 7.29L162.20 7.29Q162.22 6.50 162.22 6.05L162.22 6.05L162.22 6.05Q162.22 5.67 162.19 4.77L162.19 4.77L162.19 4.77Q162.18 4.37 161.84 4.14L161.84 4.14L161.84 4.14Q161.50 3.92 161.06 3.91L161.06 3.91L161.06 3.91Q160.92 3.91 160.88 3.86L160.88 3.86L160.88 3.86Q160.85 3.81 160.85 3.71ZM176.29 3.65L176.29 3.65L176.29 3.65Q176.29 3.46 176.68 3.46L176.68 3.46L176.68 3.46Q176.74 3.46 176.86 3.47L176.86 3.47L176.86 3.47Q176.99 3.49 177.06 3.49L177.06 3.49L177.06 3.49Q177.10 3.49 178.37 3.52L178.37 3.52L178.37 3.52Q179.65 3.56 180.47 3.56L180.47 3.56L180.47 3.56Q180.77 3.56 181.92 3.53L181.92 3.53L181.92 3.53Q183.08 3.50 183.27 3.50L183.27 3.50L183.27 3.50Q183.54 3.50 183.54 3.82L183.54 3.82L183.54 3.82Q183.54 3.91 183.46 4.38L183.46 4.38L183.46 4.38Q183.37 4.84 183.37 5.25L183.37 5.25L183.37 5.25Q183.37 5.38 183.30 5.47L183.30 5.47L183.30 5.47Q183.23 5.56 183.15 5.56L183.15 5.56L183.15 5.56Q182.94 5.56 182.94 5.26L182.94 5.26L182.94 5.26Q182.94 4.89 182.70 4.58L182.70 4.58L182.70 4.58Q182.46 4.27 182.11 4.26L182.11 4.26L182.11 4.26Q180.85 4.16 180.18 4.16L180.18 4.16L179.82 4.16L179.82 4.16Q179.09 4.16 178.97 4.26L178.97 4.26L178.97 4.26Q178.85 4.37 178.82 5.01L178.82 5.01L178.82 5.01Q178.77 6.02 178.77 7.35L178.77 7.35L178.77 7.35Q178.77 8.05 179.03 8.06L179.03 8.06L179.38 8.06L179.97 8.06L180.40 8.06L180.40 8.06Q181.24 8.06 181.52 8.01L181.52 8.01L181.52 8.01Q181.80 7.95 182.03 7.80L182.03 7.80L182.03 7.80Q182.29 7.62 182.35 7.28L182.35 7.28L182.35 7.28Q182.39 7.04 182.55 7.04L182.55 7.04L182.55 7.04Q182.67 7.04 182.70 7.08L182.70 7.08L182.70 7.08Q182.73 7.13 182.73 7.27L182.73 7.27L182.73 7.27Q182.73 7.36 182.67 7.91L182.67 7.91L182.67 7.91Q182.62 8.46 182.62 8.74L182.62 8.74L182.62 8.74Q182.62 9.00 182.64 9.24L182.64 9.24L182.64 9.24Q182.66 9.48 182.66 9.59L182.66 9.59L182.66 9.59Q182.66 9.94 182.56 9.94L182.56 9.94L182.56 9.94Q182.35 9.94 182.25 9.60L182.25 9.60L182.25 9.60Q182.06 9.02 181.90 8.92L181.90 8.92L181.90 8.92Q181.61 8.72 180.56 8.72L180.56 8.72L180.56 8.72Q180.14 8.72 179.88 8.72L179.88 8.72L179.88 8.72Q179.62 8.72 179.54 8.71L179.54 8.71L179.54 8.71Q179.47 8.71 179.42 8.71L179.42 8.71L179.42 8.71Q179.37 8.71 179.33 8.71L179.33 8.71L179.33 8.71Q178.75 8.71 178.75 8.97L178.75 8.97L178.75 8.97Q178.75 9.38 178.74 9.99L178.74 9.99L178.74 9.99Q178.72 10.60 178.72 10.99L178.72 10.99L178.72 11.55L178.72 11.55Q178.72 12.56 179.06 12.66L179.06 12.66L179.06 12.66Q179.41 12.77 179.66 12.77L179.66 12.77L179.66 12.77Q180.71 12.77 181.50 12.67L181.50 12.67L181.50 12.67Q182.29 12.57 182.69 12.42L182.69 12.42L182.69 12.42Q183.09 12.28 183.36 12.10L183.36 12.10L183.36 12.10Q183.62 11.93 183.70 11.78L183.70 11.78L183.70 11.78Q183.78 11.63 183.86 11.54L183.86 11.54L183.86 11.54Q183.93 11.44 184.02 11.44L184.02 11.44L184.02 11.44Q184.18 11.44 184.18 11.68L184.18 11.68L184.18 11.68Q184.18 12.28 183.58 12.89L183.58 12.89L183.58 12.89Q182.98 13.51 182.53 13.51L182.53 13.51L182.53 13.51Q181.52 13.51 180.26 13.44L180.26 13.44L180.26 13.44Q178.99 13.37 178.68 13.37L178.68 13.37L178.68 13.37Q178.29 13.37 177.70 13.43L177.70 13.43L177.70 13.43Q177.11 13.50 176.78 13.50L176.78 13.50L176.78 13.50Q176.48 13.50 176.48 13.36L176.48 13.36L176.48 13.36Q176.48 13.23 176.48 13.19L176.48 13.19L176.48 13.19Q176.48 13.15 176.53 13.12L176.53 13.12L176.53 13.12Q176.57 13.09 176.62 13.08L176.62 13.08L176.62 13.08Q176.67 13.08 176.80 13.03L176.80 13.03L176.80 13.03Q176.93 12.99 177.09 12.92L177.09 12.92L177.09 12.92Q177.42 12.75 177.53 12.26L177.53 12.26L177.53 12.26Q177.63 11.77 177.63 10.21L177.63 10.21L177.63 8.47L177.63 8.47Q177.63 8.09 177.65 7.29L177.65 7.29L177.65 7.29Q177.67 6.50 177.67 6.05L177.67 6.05L177.67 6.05Q177.67 5.67 177.65 4.77L177.65 4.77L177.65 4.77Q177.63 4.37 177.30 4.14L177.30 4.14L177.30 4.14Q176.96 3.92 176.51 3.91L176.51 3.91L176.51 3.91Q176.29 3.91 176.29 3.65ZM192.08 8.90L192.08 8.90L192.08 8.90Q192.08 7.38 192.67 6.16L192.67 6.16L192.67 6.16Q193.26 4.94 194.48 4.19L194.48 4.19L194.48 4.19Q195.71 3.44 197.39 3.44L197.39 3.44L197.39 3.44Q198.24 3.44 199.11 3.70L199.11 3.70L199.11 3.70Q199.98 3.95 200.49 4.20L200.49 4.20L201.01 4.47L201.01 4.47Q201.05 4.47 201.15 4.40L201.15 4.40L201.15 4.40Q201.25 4.33 201.31 4.33L201.31 4.33L201.31 4.33Q201.38 4.33 201.45 4.38L201.45 4.38L201.45 4.38Q201.52 4.44 201.52 4.55L201.52 4.55L201.52 4.55Q201.53 4.96 201.58 5.41L201.58 5.41L201.58 5.41Q201.63 5.87 201.67 6.16L201.67 6.16L201.67 6.16Q201.71 6.45 201.71 6.51L201.71 6.51L201.71 6.51Q201.71 6.76 201.54 6.76L201.54 6.76L201.54 6.76Q201.42 6.76 201.31 6.57L201.31 6.57L201.31 6.57Q199.95 4.02 197.39 4.02L197.39 4.02L197.39 4.02Q195.64 4.02 194.52 5.14L194.52 5.14L194.52 5.14Q193.40 6.26 193.40 8.06L193.40 8.06L193.40 8.06Q193.40 9.06 193.66 9.93L193.66 9.93L193.66 9.93Q193.91 10.79 194.44 11.51L194.44 11.51L194.44 11.51Q194.96 12.24 195.89 12.66L195.89 12.66L195.89 12.66Q196.81 13.08 198.04 13.08L198.04 13.08L198.04 13.08Q200.06 13.08 201.43 10.98L201.43 10.98L201.43 10.98Q201.49 10.88 201.64 10.88L201.64 10.88L201.64 10.88Q201.77 10.88 201.77 11.07L201.77 11.07L201.77 11.07Q201.77 11.23 201.72 11.49L201.72 11.49L201.72 11.49Q201.67 11.75 201.60 12.06L201.60 12.06L201.60 12.06Q201.53 12.38 201.52 12.45L201.52 12.45L201.52 12.45Q201.49 12.60 201.29 12.70L201.29 12.70L201.29 12.70Q200.54 13.06 200.11 13.24L200.11 13.24L200.11 13.24Q199.68 13.43 199.02 13.57L199.02 13.57L199.02 13.57Q198.37 13.72 197.68 13.72L197.68 13.72L197.68 13.72Q196.46 13.72 195.48 13.43L195.48 13.43L195.48 13.43Q194.50 13.13 193.88 12.66L193.88 12.66L193.88 12.66Q193.26 12.18 192.84 11.54L192.84 11.54L192.84 11.54Q192.42 10.91 192.25 10.25L192.25 10.25L192.25 10.25Q192.08 9.60 192.08 8.90ZM210.04 5.32L210.04 5.32L210.04 5.32Q210.04 4.76 210.18 3.88L210.18 3.88L210.18 3.88Q210.18 3.85 210.19 3.78L210.19 3.78L210.19 3.78Q210.20 3.71 210.20 3.69L210.20 3.69L210.20 3.69Q210.21 3.67 210.22 3.62L210.22 3.62L210.22 3.62Q210.22 3.57 210.24 3.55L210.24 3.55L210.24 3.55Q210.25 3.53 210.27 3.49L210.27 3.49L210.27 3.49Q210.29 3.46 210.32 3.44L210.32 3.44L210.32 3.44Q210.35 3.43 210.39 3.42L210.39 3.42L210.39 3.42Q210.43 3.40 210.49 3.39L210.49 3.39L210.49 3.39Q210.55 3.39 210.62 3.39L210.62 3.39L210.62 3.39Q210.84 3.39 211.80 3.44L211.80 3.44L211.80 3.44Q212.76 3.50 214.56 3.50L214.56 3.50L214.56 3.50Q217.64 3.50 218.88 3.43L218.88 3.43L218.88 3.43Q218.89 3.43 218.93 3.42L218.93 3.42L218.93 3.42Q218.96 3.42 218.97 3.42L218.97 3.42L218.97 3.42Q219.13 3.42 219.18 3.50L219.18 3.50L219.18 3.50Q219.24 3.58 219.24 3.65L219.24 3.65L219.24 3.65Q219.24 3.75 219.28 4.24L219.28 4.24L219.28 4.24Q219.32 4.73 219.32 4.79L219.32 4.79L219.32 4.79Q219.32 5.14 219.28 5.23L219.28 5.23L219.28 5.23Q219.24 5.32 219.10 5.32L219.10 5.32L219.10 5.32Q218.99 5.32 218.95 5.15L218.95 5.15L218.95 5.15Q218.83 4.75 218.75 4.60L218.75 4.60L218.75 4.60Q218.67 4.45 218.39 4.34L218.39 4.34L218.39 4.34Q218.11 4.23 217.53 4.23L217.53 4.23L215.71 4.23L215.71 4.23Q215.38 4.23 215.30 4.36L215.30 4.36L215.30 4.36Q215.22 4.49 215.22 5.12L215.22 5.12L215.22 5.81L215.22 5.81Q215.22 7.69 215.20 9.11L215.20 9.11L215.20 9.11Q215.18 10.54 215.18 10.93L215.18 10.93L215.18 10.93Q215.18 11.13 215.17 11.43L215.17 11.43L215.17 11.43Q215.17 11.73 215.17 11.84L215.17 11.84L215.17 11.84Q215.17 12.45 215.36 12.64L215.36 12.64L215.36 12.64Q215.54 12.81 215.77 12.90L215.77 12.90L215.77 12.90Q215.99 12.99 216.15 13.01L216.15 13.01L216.15 13.01Q216.31 13.02 216.43 13.08L216.43 13.08L216.43 13.08Q216.54 13.13 216.54 13.26L216.54 13.26L216.54 13.26Q216.54 13.41 216.47 13.45L216.47 13.45L216.47 13.45Q216.40 13.50 216.20 13.50L216.20 13.50L216.20 13.50Q216.03 13.50 215.46 13.44L215.46 13.44L215.46 13.44Q214.89 13.38 214.65 13.38L214.65 13.38L214.65 13.38Q214.48 13.38 213.97 13.43L213.97 13.43L213.97 13.43Q213.46 13.48 213.22 13.48L213.22 13.48L213.22 13.48Q212.70 13.48 212.70 13.26L212.70 13.26L212.70 13.26Q212.70 13.12 212.79 13.07L212.79 13.07L212.79 13.07Q212.87 13.02 213.12 12.98L213.12 12.98L213.12 12.98Q213.36 12.95 213.43 12.94L213.43 12.94L213.43 12.94Q213.91 12.82 213.96 12.38L213.96 12.38L213.96 12.38Q214.10 11.14 214.10 7.08L214.10 7.08L214.09 4.58L214.09 4.58Q214.09 4.31 213.93 4.25L213.93 4.25L213.93 4.25Q213.78 4.19 213.02 4.19L213.02 4.19L213.02 4.19Q212.04 4.19 211.55 4.24L211.55 4.24L211.55 4.24Q211.05 4.30 210.97 4.35L210.97 4.35L210.97 4.35Q210.88 4.40 210.77 4.54L210.77 4.54L210.77 4.54Q210.64 4.70 210.57 4.91L210.57 4.91L210.57 4.91Q210.49 5.11 210.47 5.24L210.47 5.24L210.47 5.24Q210.45 5.38 210.38 5.47L210.38 5.47L210.38 5.47Q210.32 5.56 210.20 5.56L210.20 5.56L210.20 5.56Q210.04 5.56 210.04 5.32ZM226.88 3.71L226.88 3.71L226.88 3.71Q226.88 3.50 227.28 3.50L227.28 3.50L227.28 3.50Q227.42 3.50 227.92 3.53L227.92 3.53L227.92 3.53Q228.42 3.56 228.86 3.56L228.86 3.56L228.86 3.56Q229.12 3.56 229.37 3.54L229.37 3.54L229.37 3.54Q229.61 3.53 230.09 3.53L230.09 3.53L230.09 3.53Q230.47 3.53 230.47 3.72L230.47 3.72L230.47 3.72Q230.47 3.84 229.82 4.10L229.82 4.10L229.82 4.10Q229.38 4.28 229.38 5.71L229.38 5.71L229.38 5.71Q229.38 7.60 229.36 9.05L229.36 9.05L229.36 9.05Q229.33 10.50 229.33 10.89L229.33 10.89L229.33 10.89Q229.33 12.07 229.68 12.59L229.68 12.59L229.68 12.59Q229.99 13.02 230.36 13.02L230.36 13.02L230.36 13.02Q230.38 13.02 230.50 13.03L230.50 13.03L230.50 13.03Q230.61 13.03 230.64 13.03L230.64 13.03L230.64 13.03Q230.73 13.03 230.83 13.08L230.83 13.08L230.83 13.08Q230.93 13.13 230.93 13.19L230.93 13.19L230.93 13.19Q230.93 13.34 230.85 13.39L230.85 13.39L230.85 13.39Q230.78 13.44 230.58 13.44L230.58 13.44L230.58 13.44Q230.16 13.44 229.80 13.41L229.80 13.41L229.80 13.41Q229.45 13.38 229.25 13.38L229.25 13.38L229.25 13.38Q228.86 13.38 228.40 13.42L228.40 13.42L228.40 13.42Q227.93 13.45 227.71 13.45L227.71 13.45L227.71 13.45Q227.08 13.45 227.08 13.24L227.08 13.24L227.08 13.24Q227.08 13.12 227.21 13.07L227.21 13.07L227.21 13.07Q227.35 13.02 227.51 13.00L227.51 13.00L227.51 13.00Q227.68 12.98 227.86 12.82L227.86 12.82L227.86 12.82Q228.05 12.66 228.12 12.35L228.12 12.35L228.12 12.35Q228.14 12.25 228.21 10.76L228.21 10.76L228.21 10.76Q228.27 9.27 228.27 8.61L228.27 8.61L228.27 7.81L228.27 7.81Q228.27 7.63 228.28 7.12L228.28 7.12L228.28 7.12Q228.28 6.61 228.28 6.30L228.28 6.30L228.28 5.66L228.28 5.66Q228.28 5.04 228.23 4.63L228.23 4.63L228.23 4.63Q228.19 4.30 227.86 4.12L227.86 4.12L227.86 4.12Q227.53 3.93 227.18 3.92L227.18 3.92L227.18 3.92Q226.88 3.91 226.88 3.71ZM238.48 3.72L238.48 3.72L238.48 3.72Q238.48 3.51 238.60 3.51L238.60 3.51L238.60 3.51Q238.64 3.51 238.78 3.52L238.78 3.52L238.78 3.52Q238.92 3.53 239.16 3.53L239.16 3.53L239.16 3.53Q239.44 3.53 240.28 3.52L240.28 3.52L240.28 3.52Q241.11 3.51 241.21 3.51L241.21 3.51L241.21 3.51Q241.53 3.51 242.02 3.49L242.02 3.49L242.02 3.49Q242.51 3.47 242.75 3.47L242.75 3.47L242.75 3.47Q244.02 3.47 244.87 4.08L244.87 4.08L244.87 4.08Q245.73 4.69 245.73 5.81L245.73 5.81L245.73 5.81Q245.73 6.22 245.58 6.57L245.58 6.57L245.58 6.57Q245.43 6.93 245.23 7.15L245.23 7.15L245.23 7.15Q245.03 7.38 244.83 7.54L244.83 7.54L244.83 7.54Q244.62 7.70 244.48 7.79L244.48 7.79L244.48 7.79Q244.33 7.88 244.33 7.90L244.33 7.90L244.33 7.90Q244.33 7.94 244.57 8.00L244.57 8.00L244.57 8.00Q244.80 8.06 245.14 8.21L245.14 8.21L245.14 8.21Q245.48 8.36 245.81 8.61L245.81 8.61L245.81 8.61Q246.13 8.86 246.37 9.36L246.37 9.36L246.37 9.36Q246.61 9.86 246.61 10.53L246.61 10.53L246.61 10.53Q246.61 11.13 246.26 11.82L246.26 11.82L246.26 11.82Q245.91 12.50 245.43 12.82L245.43 12.82L245.43 12.82Q244.82 13.26 244.29 13.40L244.29 13.40L244.29 13.40Q243.75 13.55 243.00 13.55L243.00 13.55L243.00 13.55Q242.44 13.55 241.51 13.47L241.51 13.47L241.51 13.47Q240.59 13.40 240.49 13.40L240.49 13.40L240.49 13.40Q240.34 13.40 239.94 13.43L239.94 13.43L239.94 13.43Q239.54 13.45 239.29 13.45L239.29 13.45L239.09 13.45L239.09 13.45Q238.80 13.45 238.80 13.24L238.80 13.24L238.80 13.24Q238.80 13.05 238.95 13.05L238.95 13.05L238.95 13.05Q239.04 13.05 239.13 13.04L239.13 13.04L239.13 13.04Q239.23 13.03 239.27 13.03L239.27 13.03L239.27 13.03Q239.40 13.03 239.52 12.94L239.52 12.94L239.52 12.94Q239.64 12.85 239.76 12.54L239.76 12.54L239.76 12.54Q239.89 12.22 239.90 11.73L239.90 11.73L239.90 11.73Q239.95 10.82 239.95 7.36L239.95 7.36L239.95 4.98L239.95 4.98Q239.95 4.89 239.91 4.75L239.91 4.75L239.91 4.75Q239.88 4.62 239.77 4.40L239.77 4.40L239.77 4.40Q239.67 4.19 239.39 4.04L239.39 4.04L239.39 4.04Q239.12 3.89 238.71 3.89L238.71 3.89L238.71 3.89Q238.48 3.89 238.48 3.72ZM241.01 12.15L241.01 12.15L241.01 12.15Q241.01 12.99 242.38 12.99L242.38 12.99L242.70 12.99L242.70 12.99Q243.46 12.99 243.91 12.92L243.91 12.92L243.91 12.92Q244.57 12.81 244.99 12.24L244.99 12.24L244.99 12.24Q245.42 11.66 245.42 10.86L245.42 10.86L245.42 10.86Q245.42 10.18 245.17 9.68L245.17 9.68L245.17 9.68Q244.92 9.18 244.59 8.93L244.59 8.93L244.59 8.93Q244.27 8.68 243.83 8.54L243.83 8.54L243.83 8.54Q243.39 8.40 243.15 8.37L243.15 8.37L243.15 8.37Q242.90 8.34 242.68 8.34L242.68 8.34L242.68 8.34Q242.23 8.34 241.94 8.34L241.94 8.34L241.94 8.34Q241.65 8.33 241.58 8.33L241.58 8.33L241.58 8.33Q241.50 8.33 241.45 8.32L241.45 8.32L241.45 8.32Q241.40 8.32 241.37 8.32L241.37 8.32L241.37 8.32Q241.25 8.32 241.19 8.35L241.19 8.35L241.19 8.35Q241.14 8.39 241.09 8.62L241.09 8.62L241.09 8.62Q241.04 8.85 241.03 9.28L241.03 9.28L241.03 9.28Q241.02 9.72 241.02 10.58L241.02 10.58L241.02 10.70L241.02 10.70Q241.02 11.21 241.02 11.54L241.02 11.54L241.02 11.54Q241.02 11.86 241.02 11.99L241.02 11.99L241.02 11.99Q241.01 12.12 241.01 12.15ZM241.09 5.40L241.09 5.81L241.09 5.81Q241.09 6.51 241.10 6.90L241.10 6.90L241.10 6.90Q241.11 7.29 241.14 7.50L241.14 7.50L241.14 7.50Q241.16 7.71 241.19 7.77L241.19 7.77L241.19 7.77Q241.22 7.83 241.28 7.83L241.28 7.83L241.28 7.83Q241.67 7.87 241.99 7.87L241.99 7.87L242.89 7.87L242.89 7.87Q243.77 7.87 244.21 7.41L244.21 7.41L244.21 7.41Q244.65 6.94 244.65 6.22L244.65 6.22L244.65 6.22Q244.65 5.43 243.92 4.70L243.92 4.70L243.92 4.70Q243.18 3.96 241.82 3.96L241.82 3.96L241.82 3.96Q241.39 3.96 241.24 4.22L241.24 4.22L241.24 4.22Q241.09 4.48 241.09 5.40L241.09 5.40ZM254.30 3.71L254.30 3.71L254.30 3.71Q254.30 3.46 254.67 3.46L254.67 3.46L254.67 3.46Q254.73 3.46 254.86 3.47L254.86 3.47L254.86 3.47Q254.98 3.49 255.05 3.49L255.05 3.49L255.05 3.49Q255.19 3.49 255.58 3.51L255.58 3.51L255.58 3.51Q255.96 3.54 256.27 3.54L256.27 3.54L256.27 3.54Q256.70 3.54 257.19 3.51L257.19 3.51L257.19 3.51Q257.68 3.49 257.74 3.49L257.74 3.49L257.74 3.49Q257.98 3.49 257.98 3.63L257.98 3.63L257.98 3.63Q257.98 3.82 257.81 3.88L257.81 3.88L257.81 3.88Q257.64 3.95 257.44 3.97L257.44 3.97L257.44 3.97Q257.24 3.99 257.05 4.28L257.05 4.28L257.05 4.28Q256.86 4.56 256.83 5.14L256.83 5.14L256.83 5.14Q256.80 5.68 256.76 8.19L256.76 8.19L256.76 8.19Q256.72 10.70 256.72 10.99L256.72 10.99L256.72 11.55L256.72 11.55Q256.72 12.56 257.05 12.66L257.05 12.66L257.05 12.66Q257.40 12.77 257.66 12.77L257.66 12.77L257.66 12.77Q258.71 12.77 259.50 12.67L259.50 12.67L259.50 12.67Q260.29 12.57 260.69 12.42L260.69 12.42L260.69 12.42Q261.09 12.28 261.35 12.10L261.35 12.10L261.35 12.10Q261.62 11.93 261.69 11.78L261.69 11.78L261.69 11.78Q261.77 11.63 261.85 11.54L261.85 11.54L261.85 11.54Q261.93 11.44 262.01 11.44L262.01 11.44L262.01 11.44Q262.18 11.44 262.18 11.68L262.18 11.68L262.18 11.68Q262.18 12.28 261.58 12.89L261.58 12.89L261.58 12.89Q260.97 13.51 260.53 13.51L260.53 13.51L260.53 13.51Q259.52 13.51 258.25 13.44L258.25 13.44L258.25 13.44Q256.98 13.37 256.68 13.37L256.68 13.37L256.68 13.37Q256.28 13.37 255.77 13.43L255.77 13.43L255.77 13.43Q255.26 13.48 254.93 13.48L254.93 13.48L254.93 13.48Q254.52 13.48 254.52 13.31L254.52 13.31L254.52 13.31Q254.52 13.22 254.60 13.15L254.60 13.15L254.60 13.15Q254.67 13.09 254.74 13.09L254.74 13.09L254.74 13.09Q254.95 13.09 255.15 12.95L255.15 12.95L255.15 12.95Q255.40 12.75 255.51 12.23L255.51 12.23L255.51 12.23Q255.63 11.70 255.63 10.21L255.63 10.21L255.63 8.47L255.63 8.47Q255.63 8.09 255.65 7.29L255.65 7.29L255.65 7.29Q255.67 6.50 255.67 6.05L255.67 6.05L255.67 6.05Q255.67 5.67 255.64 4.77L255.64 4.77L255.64 4.77Q255.63 4.37 255.29 4.14L255.29 4.14L255.29 4.14Q254.95 3.92 254.51 3.91L254.51 3.91L254.51 3.91Q254.37 3.91 254.33 3.86L254.33 3.86L254.33 3.86Q254.30 3.81 254.30 3.71ZM269.74 3.65L269.74 3.65L269.74 3.65Q269.74 3.46 270.13 3.46L270.13 3.46L270.13 3.46Q270.19 3.46 270.31 3.47L270.31 3.47L270.31 3.47Q270.44 3.49 270.51 3.49L270.51 3.49L270.51 3.49Q270.55 3.49 271.82 3.52L271.82 3.52L271.82 3.52Q273.10 3.56 273.92 3.56L273.92 3.56L273.92 3.56Q274.22 3.56 275.37 3.53L275.37 3.53L275.37 3.53Q276.53 3.50 276.72 3.50L276.72 3.50L276.72 3.50Q276.99 3.50 276.99 3.82L276.99 3.82L276.99 3.82Q276.99 3.91 276.91 4.38L276.91 4.38L276.91 4.38Q276.82 4.84 276.82 5.25L276.82 5.25L276.82 5.25Q276.82 5.38 276.75 5.47L276.75 5.47L276.75 5.47Q276.68 5.56 276.60 5.56L276.60 5.56L276.60 5.56Q276.39 5.56 276.39 5.26L276.39 5.26L276.39 5.26Q276.39 4.89 276.15 4.58L276.15 4.58L276.15 4.58Q275.91 4.27 275.56 4.26L275.56 4.26L275.56 4.26Q274.30 4.16 273.63 4.16L273.63 4.16L273.27 4.16L273.27 4.16Q272.54 4.16 272.42 4.26L272.42 4.26L272.42 4.26Q272.30 4.37 272.27 5.01L272.27 5.01L272.27 5.01Q272.22 6.02 272.22 7.35L272.22 7.35L272.22 7.35Q272.22 8.05 272.48 8.06L272.48 8.06L272.83 8.06L273.42 8.06L273.85 8.06L273.85 8.06Q274.69 8.06 274.97 8.01L274.97 8.01L274.97 8.01Q275.25 7.95 275.48 7.80L275.48 7.80L275.48 7.80Q275.74 7.62 275.80 7.28L275.80 7.28L275.80 7.28Q275.84 7.04 276.00 7.04L276.00 7.04L276.00 7.04Q276.12 7.04 276.15 7.08L276.15 7.08L276.15 7.08Q276.18 7.13 276.18 7.27L276.18 7.27L276.18 7.27Q276.18 7.36 276.12 7.91L276.12 7.91L276.12 7.91Q276.07 8.46 276.07 8.74L276.07 8.74L276.07 8.74Q276.07 9.00 276.09 9.24L276.09 9.24L276.09 9.24Q276.11 9.48 276.11 9.59L276.11 9.59L276.11 9.59Q276.11 9.94 276.01 9.94L276.01 9.94L276.01 9.94Q275.80 9.94 275.70 9.60L275.70 9.60L275.70 9.60Q275.51 9.02 275.35 8.92L275.35 8.92L275.35 8.92Q275.06 8.72 274.01 8.72L274.01 8.72L274.01 8.72Q273.59 8.72 273.33 8.72L273.33 8.72L273.33 8.72Q273.07 8.72 272.99 8.71L272.99 8.71L272.99 8.71Q272.92 8.71 272.87 8.71L272.87 8.71L272.87 8.71Q272.82 8.71 272.78 8.71L272.78 8.71L272.78 8.71Q272.20 8.71 272.20 8.97L272.20 8.97L272.20 8.97Q272.20 9.38 272.19 9.99L272.19 9.99L272.19 9.99Q272.17 10.60 272.17 10.99L272.17 10.99L272.17 11.55L272.17 11.55Q272.17 12.56 272.51 12.66L272.51 12.66L272.51 12.66Q272.86 12.77 273.11 12.77L273.11 12.77L273.11 12.77Q274.16 12.77 274.95 12.67L274.95 12.67L274.95 12.67Q275.74 12.57 276.14 12.42L276.14 12.42L276.14 12.42Q276.54 12.28 276.81 12.10L276.81 12.10L276.81 12.10Q277.07 11.93 277.15 11.78L277.15 11.78L277.15 11.78Q277.23 11.63 277.31 11.54L277.31 11.54L277.31 11.54Q277.38 11.44 277.47 11.44L277.47 11.44L277.47 11.44Q277.63 11.44 277.63 11.68L277.63 11.68L277.63 11.68Q277.63 12.28 277.03 12.89L277.03 12.89L277.03 12.89Q276.43 13.51 275.98 13.51L275.98 13.51L275.98 13.51Q274.97 13.51 273.71 13.44L273.71 13.44L273.71 13.44Q272.44 13.37 272.13 13.37L272.13 13.37L272.13 13.37Q271.74 13.37 271.15 13.43L271.15 13.43L271.15 13.43Q270.56 13.50 270.23 13.50L270.23 13.50L270.23 13.50Q269.93 13.50 269.93 13.36L269.93 13.36L269.93 13.36Q269.93 13.23 269.93 13.19L269.93 13.19L269.93 13.19Q269.93 13.15 269.98 13.12L269.98 13.12L269.98 13.12Q270.02 13.09 270.07 13.08L270.07 13.08L270.07 13.08Q270.12 13.08 270.25 13.03L270.25 13.03L270.25 13.03Q270.38 12.99 270.54 12.92L270.54 12.92L270.54 12.92Q270.87 12.75 270.98 12.26L270.98 12.26L270.98 12.26Q271.08 11.77 271.08 10.21L271.08 10.21L271.08 8.47L271.08 8.47Q271.08 8.09 271.10 7.29L271.10 7.29L271.10 7.29Q271.12 6.50 271.12 6.05L271.12 6.05L271.12 6.05Q271.12 5.67 271.10 4.77L271.10 4.77L271.10 4.77Q271.08 4.37 270.75 4.14L270.75 4.14L270.75 4.14Q270.41 3.92 269.96 3.91L269.96 3.91L269.96 3.91Q269.74 3.91 269.74 3.65ZM285.74 10.82L285.74 10.82L285.74 10.82Q285.74 10.53 285.94 10.53L285.94 10.53L285.94 10.53Q286.12 10.53 286.16 10.67L286.16 10.67L286.16 10.67Q286.30 11.00 286.42 11.25L286.42 11.25L286.42 11.25Q286.54 11.49 286.80 11.85L286.80 11.85L286.80 11.85Q287.07 12.21 287.38 12.44L287.38 12.44L287.38 12.44Q287.69 12.67 288.17 12.84L288.17 12.84L288.17 12.84Q288.65 13.01 289.23 13.01L289.23 13.01L289.23 13.01Q290.28 13.01 290.91 12.45L290.91 12.45L290.91 12.45Q291.55 11.90 291.55 11.00L291.55 11.00L291.55 11.00Q291.55 10.35 291.12 9.90L291.12 9.90L291.12 9.90Q290.68 9.46 290.12 9.27L290.12 9.27L290.12 9.27Q289.56 9.09 288.70 8.77L288.70 8.77L288.70 8.77Q287.84 8.46 287.29 8.13L287.29 8.13L287.29 8.13Q286.02 7.38 286.02 6.08L286.02 6.08L286.02 6.08Q286.02 4.83 286.92 4.08L286.92 4.08L286.92 4.08Q287.83 3.33 289.27 3.33L289.27 3.33L289.27 3.33Q289.80 3.33 290.54 3.56L290.54 3.56L290.54 3.56Q291.27 3.79 291.28 3.79L291.28 3.79L291.28 3.79Q291.33 3.79 291.44 3.74L291.44 3.74L291.44 3.74Q291.55 3.68 291.61 3.68L291.61 3.68L291.61 3.68Q291.79 3.68 291.82 3.79L291.82 3.79L291.82 3.79Q292.11 5.49 292.11 5.70L292.11 5.70L292.11 5.70Q292.11 6.09 291.91 6.09L291.91 6.09L291.91 6.09Q291.79 6.09 291.72 5.89L291.72 5.89L291.72 5.89Q291.55 5.49 291.39 5.24L291.39 5.24L291.39 5.24Q291.23 4.98 291.16 4.91L291.16 4.91L291.16 4.91Q291.09 4.84 290.79 4.58L290.79 4.58L290.79 4.58Q290.04 3.91 288.96 3.91L288.96 3.91L288.96 3.91Q288.09 3.91 287.50 4.33L287.50 4.33L287.50 4.33Q286.92 4.75 286.92 5.46L286.92 5.46L286.92 5.46Q286.92 6.09 287.26 6.50L287.26 6.50L287.26 6.50Q287.60 6.90 288.18 7.13L288.18 7.13L288.18 7.13Q288.75 7.35 289.38 7.55L289.38 7.55L289.38 7.55Q290.01 7.74 290.72 8.09L290.72 8.09L290.72 8.09Q291.42 8.44 291.89 8.93L291.89 8.93L291.89 8.93Q292.45 9.53 292.45 10.43L292.45 10.43L292.45 10.43Q292.45 11.90 291.51 12.76L291.51 12.76L291.51 12.76Q290.57 13.62 289.18 13.62L289.18 13.62L289.18 13.62Q288.22 13.62 287.63 13.52L287.63 13.52L287.63 13.52Q287.04 13.41 286.43 13.09L286.43 13.09L286.43 13.09Q286.24 12.98 285.99 12.00L285.99 12.00L285.99 12.00Q285.74 11.02 285.74 10.82Z"></path></g></svg>